HIERARCHY
ROOT root
{
	OFFSET 0.000000 0.000000 0.000000
	CHANNELS 6 Xposition Yposition Zposition Zrotation Yrotation Xrotation
	JOINT lhip
	{
		OFFSET 0.058581 -0.082280 -0.017664
		CHANNELS 3 Zrotation Yrotation Xrotation
		JOINT lknee
		{
			OFFSET 0.043451 -0.386469 0.008037
			CHANNELS 3 Zrotation Yrotation Xrotation
			JOINT lankle
			{
				OFFSET -0.014790 -0.426874 -0.037428
				CHANNELS 3 Zrotation Yrotation Xrotation
				JOINT ltoe
				{
					OFFSET 0.041054 -0.060286 0.122042
					CHANNELS 3 Zrotation Yrotation Xrotation
					End Site
					{
						OFFSET 0.000000 0.000000 0.000000
					}
				}
			}
		}
	}
	JOINT rhip
	{
		OFFSET -0.060310 -0.090513 -0.013543
		CHANNELS 3 Zrotation Yrotation Xrotation
		JOINT rknee
		{
			OFFSET -0.043257 -0.383688 -0.004843
			CHANNELS 3 Zrotation Yrotation Xrotation
			JOINT rankle
			{
				OFFSET 0.019056 -0.420046 -0.034562
				CHANNELS 3 Zrotation Yrotation Xrotation
				JOINT rtoe
				{
					OFFSET -0.034840 -0.062106 0.130323
					CHANNELS 3 Zrotation Yrotation Xrotation
					End Site
					{
						OFFSET 0.000000 0.000000 0.000000
					}
				}
			}
		}
	}
	JOINT lowerback
	{
		OFFSET 0.004439 0.124404 -0.038385
		CHANNELS 3 Zrotation Yrotation Xrotation
		JOINT upperback
		{
			OFFSET 0.004488 0.137956 0.026820
			CHANNELS 3 Zrotation Yrotation Xrotation
			JOINT chest
			{
				OFFSET -0.002265 0.056032 0.002855
				CHANNELS 3 Zrotation Yrotation Xrotation
				JOINT lowerneck
				{
					OFFSET -0.013390 0.211636 -0.033468
					CHANNELS 3 Zrotation Yrotation Xrotation
					JOINT upperneck
					{
						OFFSET 0.010113 0.088937 0.050410
						CHANNELS 3 Zrotation Yrotation Xrotation
						End Site
						{
							OFFSET 0.000000 0.000000 0.000000
						}
					}
				}
				JOINT lclavicle
				{
					OFFSET 0.071702 0.114000 -0.018898
					CHANNELS 3 Zrotation Yrotation Xrotation
					JOINT lshoulder
					{
						OFFSET 0.122921 0.045205 -0.019046
						CHANNELS 3 Zrotation Yrotation Xrotation
						JOINT lelbow
						{
							OFFSET 0.255332 -0.015649 -0.022946
							CHANNELS 3 Zrotation Yrotation Xrotation
							JOINT lwrist
							{
								OFFSET 0.265709 0.012698 -0.007375
								CHANNELS 3 Zrotation Yrotation Xrotation
								End Site
								{
									OFFSET 0.000000 0.000000 0.000000
								}
							}
						}
					}
				}
				JOINT rclavicle
				{
					OFFSET -0.082954 0.112472 -0.023707
					CHANNELS 3 Zrotation Yrotation Xrotation
					JOINT rshoulder
					{
						OFFSET -0.113228 0.046853 -0.008472
						CHANNELS 3 Zrotation Yrotation Xrotation
						JOINT relbow
						{
							OFFSET -0.260127 -0.014369 -0.031269
							CHANNELS 3 Zrotation Yrotation Xrotation
							JOINT rwrist
							{
								OFFSET -0.269108 0.006794 -0.006027
								CHANNELS 3 Zrotation Yrotation Xrotation
								End Site
								{
									OFFSET 0.000000 0.000000 0.000000
								}
							}
						}
					}
				}
			}
		}
	}
}
MOTION
Frames: 17
Frame Time: 0.033333
0.281340 0.634984 0.938346 -28.222344 -9.201544 92.696072 -7.445567 -5.266912 -24.724946 -10.432941 12.286328 28.443923 2.074320 3.779152 -20.721089 0.000000 -0.000000 0.000000 1.172310 -6.597691 0.319391 -5.043574 -15.097822 33.562677 3.602243 -12.449079 -25.092853 0.000000 -0.000000 0.000000 -3.213899 12.367658 10.484412 -1.380895 -0.294068 -5.324477 -1.821838 1.937332 3.465811 -5.567004 17.478380 9.685287 -1.619990 13.934348 2.094643 -21.195339 -12.436439 -0.722433 -42.448673 -13.971545 9.186647 3.880341 -49.469946 -12.228511 13.691504 -6.198287 -21.892987 19.027738 4.152307 5.514955 64.188738 -2.248551 22.096347 -114.512963 72.202564 -97.508393 -60.848526 8.230174 -8.457424 
0.274220 0.635000 0.935934 -27.152372 -8.615396 92.227163 -8.557062 -5.036298 -22.620995 -12.409225 11.134056 30.263338 2.051520 3.111946 -20.745975 0.000000 -0.000000 0.000000 1.737555 -6.195690 -1.196309 -4.832947 -15.414694 37.661137 3.510909 -12.193438 -23.465597 0.000000 -0.000000 0.000000 -3.569504 12.559800 9.861301 -0.449134 1.178448 -5.650415 -1.251241 2.877858 3.905430 -4.480105 17.128845 9.828560 -2.629250 12.652156 2.341136 -20.563890 -10.589965 -0.623444 -43.022361 -11.515077 10.935211 1.202176 -53.934987 -8.481316 12.187354 -6.392558 -24.289479 19.977660 5.117949 4.721084 61.996283 1.711625 21.876856 -101.040520 71.476338 -85.559672 -59.497745 8.652500 -7.113939 
0.266284 0.632562 0.933765 -26.748892 -8.033536 91.713722 -9.483008 -6.212024 -18.054525 -12.187456 7.969480 24.801506 5.878471 5.291909 -23.142179 0.000000 -0.000000 0.000000 1.508653 -5.821996 -3.193021 -3.884918 -15.339594 43.099711 3.918880 -11.908869 -20.941095 0.000000 -0.000000 0.000000 -3.697036 11.878189 8.223890 0.203653 2.579245 -4.562254 -0.990977 3.835032 4.090492 -3.002111 16.879204 9.815410 -3.855389 11.680570 2.874274 -20.246923 -8.243088 -0.155900 -43.422546 -8.784840 12.868637 -1.867708 -59.315188 -3.916759 10.972418 -7.294037 -26.774727 21.146995 6.423178 4.112631 60.872892 6.543226 22.054104 -86.772470 68.594520 -73.586465 -54.791627 9.096239 -6.552404 
0.259737 0.629604 0.931873 -26.064918 -8.271092 91.977252 -10.006523 -8.835358 -14.686743 -12.763323 6.176324 18.414922 10.270557 10.389312 -23.523881 0.000000 -0.000000 0.000000 -0.891457 -5.418204 -6.300603 -2.148042 -16.403038 49.534346 5.303620 -10.208840 -16.705069 0.000000 -0.000000 0.000000 -4.454671 11.305208 5.856619 0.741081 3.164444 -3.960669 -1.235778 4.208694 4.656719 -1.000718 17.178171 9.308538 -4.942099 10.727537 4.078862 -20.274732 -5.781735 1.392305 -43.342889 -7.007314 14.996331 -6.016735 -64.656508 0.625983 10.279463 -8.199142 -30.662464 23.103580 6.608587 3.807031 59.615606 12.525824 22.917968 -72.962384 64.982849 -62.256319 -49.394344 10.687943 -5.022565 
0.253594 0.628012 0.933869 -24.353508 -8.670752 91.451396 -10.891102 -10.736115 -15.396457 -11.515997 5.685473 20.498947 10.418226 13.052142 -21.977960 0.000000 -0.000000 0.000000 -4.440095 -5.692463 -9.705925 -0.930732 -17.594015 57.694770 9.081317 -6.803062 -11.012419 0.000000 -0.000000 0.000000 -5.026861 10.301547 5.678199 1.065378 2.729438 -3.756447 -1.572938 4.190118 4.358071 0.629290 17.578330 8.963905 -5.808711 10.284983 4.616119 -20.916912 -4.329061 2.453202 -43.259785 -5.011377 17.161695 -10.880484 -69.452858 5.760393 10.079216 -9.256445 -34.760953 24.609544 7.364757 2.674569 58.755743 16.711293 23.861326 -58.451020 61.546704 -49.121803 -47.249108 11.392735 -2.244402 
0.246589 0.625611 0.936207 -22.356083 -8.374412 90.409091 -11.231729 -10.306890 -14.362754 -11.342708 2.979746 21.232635 11.386915 14.070367 -21.340017 0.000000 -0.000000 0.000000 -7.474073 -7.127190 -13.205266 1.003985 -16.822379 66.201768 9.852372 -4.755484 -8.390191 0.000000 -0.000000 0.000000 -4.410396 9.275499 5.823346 1.154368 2.659152 -3.207316 -1.949860 3.793978 4.578890 1.097671 16.469721 7.517247 -5.812526 10.276936 5.316997 -21.026788 -4.425072 3.050343 -44.490613 -3.545477 19.119946 -18.032400 -74.725899 14.762270 12.262051 -8.562277 -37.344838 24.147512 8.770305 2.221947 60.139879 18.186030 23.760750 -53.538772 58.783234 -46.537245 -41.632247 10.775548 -1.957313 
0.239501 0.623164 0.939050 -20.540960 -7.930033 89.338328 -11.089520 -10.293388 -11.416168 -11.578434 0.505038 18.435278 13.668920 15.090748 -20.430141 0.000000 -0.000000 0.000000 -9.705229 -8.042274 -16.291777 2.573839 -15.441898 72.237409 8.659926 -5.794759 -8.684904 0.000000 -0.000000 0.000000 -3.449330 8.428178 5.980338 0.995166 3.146509 -2.648713 -2.438665 3.421458 5.206668 1.219836 15.454684 5.364349 -5.400809 9.878915 6.224479 -21.365829 -5.146790 3.683796 -45.946509 -4.264990 21.295428 -30.138901 -79.935232 27.726450 17.346717 -5.924316 -37.663905 24.148319 9.292164 2.493849 59.953727 18.000283 24.535205 -50.687703 58.595173 -45.087159 -45.263420 10.874398 -0.798953 
0.230064 0.621058 0.944321 -19.218047 -7.272248 88.239237 -10.863157 -10.195671 -9.439025 -10.249516 -0.492641 17.678849 13.012610 14.357664 -20.067316 0.000000 -0.000000 0.000000 -10.567959 -7.576782 -18.340591 1.154041 -13.752598 74.304700 5.847891 -8.530012 -12.868706 0.000000 -0.000000 0.000000 -3.135404 7.838372 6.721353 1.053086 3.543693 -2.476481 -2.247307 2.797693 5.299905 1.155944 14.315366 4.299140 -5.163023 9.844077 6.293292 -22.299974 -5.353304 3.628465 -48.052022 -5.799977 23.670515 -61.408106 -84.669190 60.396993 21.455856 -3.587686 -36.258046 24.891861 9.093729 2.548166 58.950713 16.434563 25.112615 -49.553909 60.254810 -45.003056 -43.707257 10.326272 -0.853835 
0.220598 0.620504 0.950579 -18.010526 -6.257596 88.039291 -10.011079 -10.333467 -8.783905 -9.011250 -2.034692 17.520870 11.926425 14.071600 -19.638810 0.000000 -0.000000 0.000000 -10.616291 -6.015668 -20.455074 -0.038130 -11.718628 72.678625 4.247824 -9.757893 -15.779664 0.000000 -0.000000 0.000000 -2.621599 6.693602 6.254985 1.069158 3.661352 -1.993127 -1.983117 2.350768 5.585100 0.517965 13.304718 3.071709 -4.722084 10.240865 6.315216 -23.066379 -5.819700 3.153686 -51.483748 -7.873064 26.237390 -135.840438 -86.056570 136.439115 25.335502 -1.223301 -33.769965 25.505424 8.672530 2.846580 57.837394 14.339217 25.327434 -48.536613 62.517445 -44.611486 -39.007003 10.535714 -0.615105 
0.210647 0.620813 0.957614 -16.861579 -5.496453 87.863292 -9.019162 -10.412182 -7.241286 -8.310655 -3.382628 15.467079 10.840584 13.900415 -18.947807 0.000000 -0.000000 0.000000 -10.921262 -3.826377 -21.541282 -0.141101 -9.477320 67.476044 4.182984 -9.437106 -18.719920 0.000000 -0.000000 0.000000 -2.306380 5.497736 6.137880 0.937623 3.483404 -1.637746 -1.842261 1.706861 5.679365 -0.170151 12.835302 1.863727 -4.296998 10.426368 6.376329 -23.379191 -6.625092 2.799519 -55.487540 -10.481057 28.552215 179.763624 -82.432011 -177.740569 29.980159 0.083939 -30.968854 25.519306 8.184397 3.016198 58.022063 11.957781 25.811629 -46.521181 64.026433 -42.298044 -35.065040 10.782500 0.004726 
0.200676 0.621122 0.964272 -15.398600 -4.896289 87.982846 -8.252425 -10.014370 -5.661759 -7.247519 -4.920960 12.725442 9.754813 12.710416 -17.938795 0.000000 -0.000000 0.000000 -11.009423 -2.330393 -21.819904 -1.058166 -7.306356 59.450275 4.275169 -9.668748 -21.234802 0.000000 -0.000000 0.000000 -1.966853 4.188613 5.985843 0.495184 2.734339 -1.559071 -1.634659 1.003443 5.794989 -1.335434 12.227314 0.485360 -3.362665 10.949144 6.410630 -23.172961 -7.877968 2.581358 -59.942358 -13.798736 30.066241 164.960419 -77.879886 -161.479297 40.142863 1.263719 -26.471814 24.757240 7.814623 2.999132 58.874582 9.082073 25.657792 -43.002156 65.557011 -38.171657 -33.842925 10.970335 0.514831 
0.190012 0.621245 0.970040 -13.652905 -4.308856 88.222595 -7.345916 -9.009817 -4.387483 -6.168987 -6.770244 10.265875 8.119153 11.093819 -17.406872 0.000000 -0.000000 0.000000 -10.792411 -1.494965 -20.966520 -2.491671 -5.733062 49.196314 4.559778 -9.878413 -22.987378 0.000000 -0.000000 0.000000 -1.448096 2.694409 5.892340 -0.140667 1.424575 -1.243315 -1.481890 -0.081547 5.125444 -2.475024 11.956490 0.203160 -2.647738 11.937709 5.393904 -23.446644 -8.789622 2.595159 -61.503711 -16.410816 30.889878 168.005989 -73.876796 -160.303020 35.747569 2.956613 -27.639749 24.151093 6.953606 3.365079 59.464412 6.550607 25.444862 -40.084211 67.245006 -34.058205 -31.790686 8.741146 -2.225405 
0.178831 0.620995 0.974222 -12.202115 -4.124189 88.468606 -6.667026 -8.112214 -3.143091 -5.170040 -8.202276 7.764644 6.661741 9.488233 -16.732654 0.000000 -0.000000 0.000000 -10.579491 -0.897978 -19.455962 -3.093474 -3.451374 38.931916 5.615587 -6.831783 -23.456547 0.000000 -0.000000 0.000000 -1.202726 1.433497 5.852740 -0.947166 -0.224372 -1.327093 -1.329933 -0.651076 4.760471 -3.778591 11.955897 -0.176745 -1.501348 12.679005 4.597180 -22.843981 -10.618039 2.158686 -63.367340 -18.695568 32.108748 164.647541 -70.025648 -155.559534 39.728738 3.283031 -23.831620 23.008561 6.544930 3.222220 60.131684 3.238498 24.655266 -36.948335 68.922257 -31.093507 -29.931379 7.631412 -4.594160 
0.166181 0.619951 0.976659 -10.872415 -3.831131 88.163915 -5.735071 -7.781383 -1.630660 -4.425013 -9.204274 5.898177 5.351983 8.348929 -16.335753 0.000000 -0.000000 0.000000 -9.926516 -0.493792 -17.238651 -3.145128 -1.436137 31.280601 8.547390 -2.230656 -20.814913 0.000000 -0.000000 0.000000 -1.077060 0.964582 5.410551 -1.244575 -1.808170 0.575817 -1.234736 -1.695833 3.581225 -4.655195 12.307408 -0.496473 -0.806194 13.175487 3.772400 -22.375697 -12.965491 1.701545 -64.038095 -21.288635 32.521589 162.140365 -67.005906 -151.398303 40.081177 3.111873 -21.939633 21.783984 6.122933 2.908264 60.132143 0.053719 23.688441 -34.050526 70.609335 -27.403248 -28.706959 7.296711 -6.141771 
0.151764 0.617451 0.977435 -9.818931 -3.715857 87.556295 -4.782248 -7.333592 -0.170970 -4.183336 -10.330131 4.914017 4.723937 7.905574 -16.122346 0.000000 -0.000000 0.000000 -8.877777 -0.598706 -15.081340 -3.052944 -0.898156 28.817626 7.944760 -2.816308 -20.180731 0.000000 -0.000000 0.000000 -1.123474 0.152676 5.442188 -1.816201 -3.086180 0.880017 -1.207858 -2.339062 3.296983 -5.457674 11.863826 -0.458340 0.296171 14.328792 3.666457 -21.981083 -14.605008 1.210195 -64.067800 -23.836832 32.438474 161.241356 -65.177113 -148.719797 40.478795 3.915603 -20.458192 20.486956 5.719422 2.842416 60.156552 -3.197638 22.814295 -31.434995 72.082937 -23.559647 -27.407982 6.964389 -6.734553 
0.137040 0.615016 0.978425 -9.574776 -3.783768 87.095749 -3.941295 -6.146005 0.718481 -3.965178 -10.828462 4.859098 3.840398 6.874530 -16.386940 0.000000 -0.000000 0.000000 -7.917225 -1.748379 -13.073236 -3.212635 -0.961083 27.040952 7.372122 -1.973012 -20.727426 0.000000 -0.000000 0.000000 -0.960396 -0.313464 5.587742 -2.801829 -3.998186 0.512144 -1.398284 -2.567115 3.005051 -5.957827 11.418890 0.035217 1.559717 15.362939 4.006149 -22.022736 -15.717038 0.177765 -63.959370 -25.502980 32.387023 159.917431 -64.656742 -146.995478 40.957616 4.326445 -18.002762 19.211115 4.995289 2.405257 60.101698 -6.577496 21.495255 -26.544864 73.330514 -17.265628 -24.783315 7.559798 -6.375381 
0.123643 0.613086 0.980067 -10.352664 -3.897311 87.093054 -3.163474 -5.303681 0.901336 -3.997169 -10.945378 5.428031 3.451301 6.737841 -16.769221 0.000000 -0.000000 0.000000 -7.747622 -3.617256 -11.670211 -2.386422 -0.405096 24.753119 7.547629 -0.724604 -20.372855 0.000000 -0.000000 0.000000 -0.043125 -0.445042 5.076583 -4.121814 -4.437234 -0.090554 -2.101170 -2.344387 3.111772 -6.533283 10.693578 0.259536 2.996292 16.488559 4.668630 -22.200562 -16.225726 -1.065488 -64.075684 -26.264951 32.023529 157.688521 -65.676052 -145.494631 40.939895 5.538251 -17.078759 17.611583 3.759383 1.827728 60.214952 -9.612448 20.155297 -20.583567 74.563712 -9.688504 -22.252192 7.575126 -3.890497 
